<?xml version="1.0" encoding="utf-8"?>
<svg version="1.1" xmlns:xlink="http://www.w3.org/1999/xlink" width="12px" height="10px" xmlns="http://www.w3.org/2000/svg">
  <g transform="matrix(1 0 0 1 -599 -122 )">
    <path d="M 11.7171717171717 7.47474747474747  C 11.9057239057239 7.63187429854096  12 7.82267115600449  12 8.04713804713805  C 12 8.27160493827161  11.9057239057239 8.46240179573513  11.7171717171717 8.61952861952862  L 10.3434343434343 9.76430976430976  C 10.1548821548822 9.92143658810325  9.92592592592593 10  9.65656565656566 10  C 9.38720538720539 10  9.15824915824916 9.92143658810325  8.96969696969697 9.76430976430976  L 6 7.28956228956229  L 3.03030303030303 9.76430976430976  C 2.84175084175084 9.92143658810325  2.61279461279461 10  2.34343434343434 10  C 2.07407407407407 10  1.84511784511785 9.92143658810325  1.65656565656566 9.76430976430976  L 0.282828282828283 8.61952861952862  C 0.0942760942760944 8.46240179573513  0 8.27160493827161  0 8.04713804713805  C 0 7.82267115600449  0.0942760942760944 7.63187429854096  0.282828282828283 7.47474747474747  L 3.25252525252525 5  L 0.282828282828283 2.52525252525253  C 0.0942760942760944 2.36812570145903  0 2.17732884399551  0 1.95286195286195  C 0 1.72839506172839  0.0942760942760944 1.53759820426487  0.282828282828283 1.38047138047138  L 1.65656565656566 0.235690235690236  C 1.84511784511785 0.0785634118967449  2.07407407407407 0  2.34343434343434 0  C 2.61279461279461 0  2.84175084175084 0.0785634118967449  3.03030303030303 0.235690235690236  L 6 2.71043771043771  L 8.96969696969697 0.235690235690236  C 9.15824915824916 0.0785634118967449  9.38720538720539 0  9.65656565656566 0  C 9.92592592592593 0  10.1548821548822 0.0785634118967449  10.3434343434343 0.235690235690236  L 11.7171717171717 1.38047138047138  C 11.9057239057239 1.53759820426487  12 1.72839506172839  12 1.95286195286195  C 12 2.17732884399551  11.9057239057239 2.36812570145903  11.7171717171717 2.52525252525253  L 8.74747474747475 5  L 11.7171717171717 7.47474747474747  Z " fill-rule="nonzero" fill="#8c8c8c" stroke="none" transform="matrix(1 0 0 1 599 122 )" />
  </g>
</svg>