<?xml version="1.0" encoding="utf-8"?>
<svg version="1.1" xmlns:xlink="http://www.w3.org/1999/xlink" width="6px" height="3px" xmlns="http://www.w3.org/2000/svg">
  <g transform="matrix(1 0 0 1 -713 -176 )">
    <path d="M 5.888671875 0.0989583333333335  C 5.962890625 0.164930555555555  6 0.243055555555555  6 0.333333333333333  C 6 0.423611111111111  5.962890625 0.501736111111111  5.888671875 0.567708333333333  L 3.263671875 2.90104166666667  C 3.189453125 2.96701388888889  3.1015625 3  3 3  C 2.8984375 3  2.810546875 2.96701388888889  2.736328125 2.90104166666667  L 0.111328125 0.567708333333333  C 0.037109375 0.501736111111111  0 0.423611111111111  0 0.333333333333333  C 0 0.243055555555555  0.037109375 0.164930555555555  0.111328125 0.0989583333333335  C 0.185546875 0.0329861111111107  0.2734375 0  0.375 0  L 5.625 0  C 5.7265625 0  5.814453125 0.0329861111111107  5.888671875 0.0989583333333335  Z " fill-rule="nonzero" fill="#d7d7d7" stroke="none" transform="matrix(1 0 0 1 713 176 )" />
  </g>
</svg>