<?xml version="1.0" encoding="utf-8"?>
<svg version="1.1" xmlns:xlink="http://www.w3.org/1999/xlink" width="6px" height="3px" xmlns="http://www.w3.org/2000/svg">
  <g transform="matrix(1 0 0 1 -713 -171 )">
    <path d="M 5.888671875 2.43229166666667  C 5.962890625 2.49826388888889  6 2.57638888888889  6 2.66666666666667  C 6 2.75694444444444  5.962890625 2.83506944444444  5.888671875 2.90104166666667  C 5.814453125 2.96701388888889  5.7265625 3  5.625 3  L 0.375 3  C 0.2734375 3  0.185546875 2.96701388888889  0.111328125 2.90104166666667  C 0.037109375 2.83506944444444  0 2.75694444444444  0 2.66666666666667  C 0 2.57638888888889  0.037109375 2.49826388888889  0.111328125 2.43229166666667  L 2.736328125 0.0989583333333335  C 2.810546875 0.0329861111111107  2.8984375 0  3 0  C 3.1015625 0  3.189453125 0.0329861111111107  3.263671875 0.0989583333333335  L 5.888671875 2.43229166666667  Z " fill-rule="nonzero" fill="#169bd5" stroke="none" transform="matrix(1 0 0 1 713 171 )" />
  </g>
</svg>