<?xml version="1.0" encoding="utf-8"?>
<svg version="1.1" xmlns:xlink="http://www.w3.org/1999/xlink" width="4px" height="3px" xmlns="http://www.w3.org/2000/svg">
  <g transform="matrix(1 0 0 1 -1010 -175 )">
    <path d="M 3.92578125 0.0989583333333335  C 3.97526041666667 0.164930555555555  4 0.243055555555555  4 0.333333333333333  C 4 0.423611111111111  3.97526041666667 0.501736111111111  3.92578125 0.567708333333333  L 2.17578125 2.90104166666667  C 2.12630208333333 2.96701388888889  2.06770833333333 3  2 3  C 1.93229166666667 3  1.87369791666667 2.96701388888889  1.82421875 2.90104166666667  L 0.07421875 0.567708333333333  C 0.0247395833333333 0.501736111111111  0 0.423611111111111  0 0.333333333333333  C 0 0.243055555555555  0.0247395833333333 0.164930555555555  0.07421875 0.0989583333333335  C 0.123697916666667 0.0329861111111107  0.182291666666667 0  0.25 0  L 3.75 0  C 3.81770833333333 0  3.87630208333333 0.0329861111111107  3.92578125 0.0989583333333335  Z " fill-rule="nonzero" fill="#d7d7d7" stroke="none" transform="matrix(1 0 0 1 1010 175 )" />
  </g>
</svg>