<?xml version="1.0" encoding="utf-8"?>
<svg version="1.1" xmlns:xlink="http://www.w3.org/1999/xlink" width="7px" height="3px" xmlns="http://www.w3.org/2000/svg">
  <g transform="matrix(1 0 0 1 -829 -171 )">
    <path d="M 6.8701171875 2.43229166666667  C 6.95670572916667 2.49826388888889  7 2.57638888888889  7 2.66666666666667  C 7 2.75694444444444  6.95670572916667 2.83506944444444  6.8701171875 2.90104166666667  C 6.78352864583333 2.96701388888889  6.68098958333333 3  6.5625 3  L 0.4375 3  C 0.319010416666667 3  0.216471354166667 2.96701388888889  0.1298828125 2.90104166666667  C 0.0432942708333333 2.83506944444444  0 2.75694444444444  0 2.66666666666667  C 0 2.57638888888889  0.0432942708333333 2.49826388888889  0.1298828125 2.43229166666667  L 3.1923828125 0.0989583333333335  C 3.27897135416667 0.0329861111111107  3.38151041666667 0  3.5 0  C 3.61848958333333 0  3.72102864583333 0.0329861111111107  3.8076171875 0.0989583333333335  L 6.8701171875 2.43229166666667  Z " fill-rule="nonzero" fill="#169bd5" stroke="none" transform="matrix(1 0 0 1 829 171 )" />
  </g>
</svg>