<?xml version="1.0" encoding="utf-8"?>
<svg version="1.1" xmlns:xlink="http://www.w3.org/1999/xlink" width="7px" height="3px" xmlns="http://www.w3.org/2000/svg">
  <g transform="matrix(1 0 0 1 -829 -176 )">
    <path d="M 6.8701171875 0.0989583333333335  C 6.95670572916667 0.164930555555555  7 0.243055555555555  7 0.333333333333333  C 7 0.423611111111111  6.95670572916667 0.501736111111111  6.8701171875 0.567708333333333  L 3.8076171875 2.90104166666667  C 3.72102864583333 2.96701388888889  3.61848958333333 3  3.5 3  C 3.38151041666667 3  3.27897135416667 2.96701388888889  3.1923828125 2.90104166666667  L 0.1298828125 0.567708333333333  C 0.0432942708333333 0.501736111111111  0 0.423611111111111  0 0.333333333333333  C 0 0.243055555555555  0.0432942708333333 0.164930555555555  0.1298828125 0.0989583333333335  C 0.216471354166667 0.0329861111111107  0.319010416666667 0  0.4375 0  L 6.5625 0  C 6.68098958333333 0  6.78352864583333 0.0329861111111107  6.8701171875 0.0989583333333335  Z " fill-rule="nonzero" fill="#d7d7d7" stroke="none" transform="matrix(1 0 0 1 829 176 )" />
  </g>
</svg>