<?xml version="1.0" encoding="utf-8"?>
<svg version="1.1" xmlns:xlink="http://www.w3.org/1999/xlink" width="4px" height="3px" xmlns="http://www.w3.org/2000/svg">
  <g transform="matrix(1 0 0 1 -1010 -170 )">
    <path d="M 3.92578125 2.43229166666667  C 3.97526041666667 2.49826388888889  4 2.57638888888889  4 2.66666666666667  C 4 2.75694444444444  3.97526041666667 2.83506944444444  3.92578125 2.90104166666667  C 3.87630208333333 2.96701388888889  3.81770833333333 3  3.75 3  L 0.25 3  C 0.182291666666667 3  0.123697916666667 2.96701388888889  0.07421875 2.90104166666667  C 0.0247395833333333 2.83506944444444  0 2.75694444444444  0 2.66666666666667  C 0 2.57638888888889  0.0247395833333333 2.49826388888889  0.07421875 2.43229166666667  L 1.82421875 0.0989583333333335  C 1.87369791666667 0.0329861111111107  1.93229166666667 0  2 0  C 2.06770833333333 0  2.12630208333333 0.0329861111111107  2.17578125 0.0989583333333335  L 3.92578125 2.43229166666667  Z " fill-rule="nonzero" fill="#169bd5" stroke="none" transform="matrix(1 0 0 1 1010 170 )" />
  </g>
</svg>