<?xml version="1.0" encoding="utf-8"?>
<svg version="1.1" xmlns:xlink="http://www.w3.org/1999/xlink" width="9px" height="3px" xmlns="http://www.w3.org/2000/svg">
  <g transform="matrix(1 0 0 1 -1107 -176 )">
    <path d="M 8.8330078125 0.0989583333333335  C 8.9443359375 0.164930555555555  9 0.243055555555555  9 0.333333333333333  C 9 0.423611111111111  8.9443359375 0.501736111111111  8.8330078125 0.567708333333333  L 4.8955078125 2.90104166666667  C 4.7841796875 2.96701388888889  4.65234375 3  4.5 3  C 4.34765625 3  4.2158203125 2.96701388888889  4.1044921875 2.90104166666667  L 0.1669921875 0.567708333333333  C 0.0556640625 0.501736111111111  0 0.423611111111111  0 0.333333333333333  C 0 0.243055555555555  0.0556640625 0.164930555555555  0.1669921875 0.0989583333333335  C 0.2783203125 0.0329861111111107  0.41015625 0  0.5625 0  L 8.4375 0  C 8.58984375 0  8.7216796875 0.0329861111111107  8.8330078125 0.0989583333333335  Z " fill-rule="nonzero" fill="#d7d7d7" stroke="none" transform="matrix(1 0 0 1 1107 176 )" />
  </g>
</svg>