<?xml version="1.0" encoding="utf-8"?>
<svg version="1.1" xmlns:xlink="http://www.w3.org/1999/xlink" width="9px" height="3px" xmlns="http://www.w3.org/2000/svg">
  <g transform="matrix(1 0 0 1 -1107 -171 )">
    <path d="M 8.8330078125 2.43229166666667  C 8.9443359375 2.49826388888889  9 2.57638888888889  9 2.66666666666667  C 9 2.75694444444444  8.9443359375 2.83506944444444  8.8330078125 2.90104166666667  C 8.7216796875 2.96701388888889  8.58984375 3  8.4375 3  L 0.5625 3  C 0.41015625 3  0.2783203125 2.96701388888889  0.1669921875 2.90104166666667  C 0.0556640625 2.83506944444444  0 2.75694444444444  0 2.66666666666667  C 0 2.57638888888889  0.0556640625 2.49826388888889  0.1669921875 2.43229166666667  L 4.1044921875 0.0989583333333335  C 4.2158203125 0.0329861111111107  4.34765625 0  4.5 0  C 4.65234375 0  4.7841796875 0.0329861111111107  4.8955078125 0.0989583333333335  L 8.8330078125 2.43229166666667  Z " fill-rule="nonzero" fill="#169bd5" stroke="none" transform="matrix(1 0 0 1 1107 171 )" />
  </g>
</svg>