<?xml version="1.0" encoding="utf-8"?>
<svg version="1.1" xmlns:xlink="http://www.w3.org/1999/xlink" width="16px" height="17px" xmlns="http://www.w3.org/2000/svg">
  <g transform="matrix(1 0 0 1 -639 -122 )">
    <path d="M 9.8125 10.42578125  C 10.6554487179487 9.53014823717949  11.0769230769231 8.45232371794872  11.0769230769231 7.19230769230769  C 11.0769230769231 5.93229166666667  10.6554487179487 4.8544671474359  9.8125 3.95883413461538  C 8.96955128205128 3.06320112179487  7.95512820512821 2.61538461538462  6.76923076923077 2.61538461538462  C 5.58333333333333 2.61538461538462  4.56891025641026 3.06320112179487  3.72596153846154 3.95883413461538  C 2.88301282051282 4.8544671474359  2.46153846153846 5.93229166666667  2.46153846153846 7.19230769230769  C 2.46153846153846 8.45232371794872  2.88301282051282 9.53014823717949  3.72596153846154 10.42578125  C 4.56891025641026 11.3214142628205  5.58333333333333 11.7692307692308  6.76923076923077 11.7692307692308  C 7.95512820512821 11.7692307692308  8.96955128205128 11.3214142628205  9.8125 10.42578125  Z M 15.6442307692308 14.7728365384615  C 15.8814102564103 15.0248397435897  16 15.3313301282051  16 15.6923076923077  C 16 16.0464743589744  15.8782051282051 16.3529647435897  15.6346153846154 16.6117788461538  C 15.3910256410256 16.8705929487179  15.1025641025641 17  14.7692307692308 17  C 14.4230769230769 17  14.1346153846154 16.8705929487179  13.9038461538462 16.6117788461538  L 10.6057692307692 13.1177884615385  C 9.45833333333333 13.9623397435897  8.17948717948718 14.3846153846154  6.76923076923077 14.3846153846154  C 5.8525641025641 14.3846153846154  4.97596153846154 14.1956129807692  4.13942307692308 13.8176081730769  C 3.30288461538462 13.4396033653846  2.58173076923077 12.9287860576923  1.97596153846154 12.28515625  C 1.37019230769231 11.6415264423077  0.889423076923077 10.8753004807692  0.533653846153846 9.98647836538462  C 0.177884615384615 9.09765625  0 8.16626602564102  0 7.19230769230769  C 0 6.21834935897436  0.177884615384615 5.28695913461538  0.533653846153846 4.39813701923077  C 0.889423076923077 3.50931490384615  1.37019230769231 2.74308894230769  1.97596153846154 2.09945913461538  C 2.58173076923077 1.45582932692308  3.30288461538462 0.945012019230769  4.13942307692308 0.567007211538462  C 4.97596153846154 0.189002403846153  5.8525641025641 0  6.76923076923077 0  C 7.68589743589744 0  8.5625 0.189002403846153  9.39903846153846 0.567007211538462  C 10.2355769230769 0.945012019230769  10.9567307692308 1.45582932692308  11.5625 2.09945913461538  C 12.1682692307692 2.74308894230769  12.6490384615385 3.50931490384615  13.0048076923077 4.39813701923077  C 13.3605769230769 5.28695913461538  13.5384615384615 6.21834935897436  13.5384615384615 7.19230769230769  C 13.5384615384615 8.69070512820513  13.1410256410256 10.0494791666667  12.3461538461538 11.2686298076923  L 15.6442307692308 14.7728365384615  Z " fill-rule="nonzero" fill="#000000" stroke="none" transform="matrix(1 0 0 1 639 122 )" />
  </g>
</svg>