<?xml version="1.0" encoding="utf-8"?>
<svg version="1.1" xmlns:xlink="http://www.w3.org/1999/xlink" width="25px" height="20px" xmlns="http://www.w3.org/2000/svg">
  <g transform="matrix(1 0 0 1 -980 -226 )">
    <path d="M 5.72916666666667 13.4375  L 6.57552083333333 12.7604166666667  L 9.04947916666667 14.7395833333333  L 8.203125 15.4166666666667  L 7.29166666666667 15.4166666666667  L 7.29166666666667 14.1666666666667  L 5.72916666666667 14.1666666666667  L 5.72916666666667 13.4375  Z M 12.8255208333333 7.72135416666667  C 13.0099826388889 7.57378472222222  13.1727430555556 7.56076388888889  13.3138020833333 7.68229166666667  C 13.4657118055556 7.79513888888889  13.4494357638889 7.92534722222222  13.2649739583333 8.07291666666667  L 8.52864583333333 11.8619791666667  C 8.34418402777778 12.0095486111111  8.18142361111111 12.0225694444444  8.04036458333333 11.9010416666667  C 7.88845486111111 11.7881944444444  7.90473090277778 11.6579861111111  8.08919270833333 11.5104166666667  L 12.8255208333333 7.72135416666667  Z M 4.16666666666667 16.6666666666667  L 8.85416666666667 16.6666666666667  L 17.7083333333333 9.58333333333333  L 13.0208333333333 5.83333333333333  L 4.16666666666667 12.9166666666667  L 4.16666666666667 16.6666666666667  Z M 14.0625 5  L 18.75 8.75  L 20.2473958333333 7.55208333333333  C 20.5512152777778 7.30902777777778  20.703125 7.01388888888889  20.703125 6.66666666666667  C 20.703125 6.31944444444444  20.5512152777778 6.02430555555555  20.2473958333333 5.78125  L 17.7734375 3.80208333333333  C 17.4696180555556 3.55902777777778  17.1006944444444 3.4375  16.6666666666667 3.4375  C 16.2326388888889 3.4375  15.8637152777778 3.55902777777778  15.5598958333333 3.80208333333333  L 14.0625 5  Z M 23.6246744791667 1.10026041666667  C 24.5415581597222 1.83376736111111  25 2.71701388888889  25 3.75  L 25 16.25  C 25 17.2829861111111  24.5415581597222 18.1662326388889  23.6246744791667 18.8997395833333  C 22.7077907986111 19.6332465277778  21.6037326388889 20  20.3125 20  L 4.6875 20  C 3.39626736111111 20  2.29220920138889 19.6332465277778  1.37532552083333 18.8997395833333  C 0.458441840277778 18.1662326388889  0 17.2829861111111  0 16.25  L 0 3.75  C 0 2.71701388888889  0.458441840277778 1.83376736111111  1.37532552083333 1.10026041666667  C 2.29220920138889 0.366753472222221  3.39626736111111 0  4.6875 0  L 20.3125 0  C 21.6037326388889 0  22.7077907986111 0.366753472222221  23.6246744791667 1.10026041666667  Z " fill-rule="nonzero" fill="#18a7f0" stroke="none" transform="matrix(1 0 0 1 980 226 )" />
  </g>
</svg>