<?xml version="1.0" encoding="utf-8"?>
<svg version="1.1" xmlns:xlink="http://www.w3.org/1999/xlink" width="25px" height="20px" xmlns="http://www.w3.org/2000/svg">
  <g transform="matrix(1 0 0 1 -1072 -678 )">
    <path d="M 24.4107744107744 14.9494949494949  C 24.8035914702581 15.2637485970819  25 15.645342312009  25 16.0942760942761  C 25 16.5432098765432  24.8035914702581 16.9248035914703  24.4107744107744 17.2390572390572  L 21.5488215488215 19.5286195286195  C 21.1560044893378 19.8428731762065  20.679012345679 20  20.1178451178451 20  C 19.5566778900112 20  19.0796857463524 19.8428731762065  18.6868686868687 19.5286195286195  L 12.5 14.5791245791246  L 6.31313131313131 19.5286195286195  C 5.92031425364759 19.8428731762065  5.44332210998878 20  4.88215488215488 20  C 4.32098765432099 20  3.84399551066218 19.8428731762065  3.45117845117845 19.5286195286195  L 0.589225589225589 17.2390572390572  C 0.196408529741863 16.9248035914703  0 16.5432098765432  0 16.0942760942761  C 0 15.645342312009  0.196408529741863 15.2637485970819  0.589225589225589 14.9494949494949  L 6.77609427609428 10  L 0.589225589225589 5.05050505050505  C 0.196408529741863 4.73625140291807  0 4.35465768799102  0 3.90572390572391  C 0 3.45679012345679  0.196408529741863 3.07519640852974  0.589225589225589 2.76094276094276  L 3.45117845117845 0.471380471380471  C 3.84399551066218 0.15712682379349  4.32098765432099 0  4.88215488215488 0  C 5.44332210998878 0  5.92031425364759 0.15712682379349  6.31313131313131 0.471380471380471  L 12.5 5.42087542087542  L 18.6868686868687 0.471380471380471  C 19.0796857463524 0.15712682379349  19.5566778900112 0  20.1178451178451 0  C 20.679012345679 0  21.1560044893378 0.15712682379349  21.5488215488215 0.471380471380471  L 24.4107744107744 2.76094276094276  C 24.8035914702581 3.07519640852974  25 3.45679012345679  25 3.90572390572391  C 25 4.35465768799102  24.8035914702581 4.73625140291807  24.4107744107744 5.05050505050505  L 18.2239057239057 10  L 24.4107744107744 14.9494949494949  Z " fill-rule="nonzero" fill="#050505" stroke="none" transform="matrix(1 0 0 1 1072 678 )" />
  </g>
</svg>