<?xml version="1.0" encoding="utf-8"?>
<svg version="1.1" xmlns:xlink="http://www.w3.org/1999/xlink" width="25px" height="17px" xmlns="http://www.w3.org/2000/svg">
  <g transform="matrix(1 0 0 1 -980 -383 )">
    <path d="M 5.72916666666667 11.421875  L 6.57552083333333 10.8463541666667  L 9.04947916666667 12.5286458333333  L 8.203125 13.1041666666667  L 7.29166666666667 13.1041666666667  L 7.29166666666667 12.0416666666667  L 5.72916666666667 12.0416666666667  L 5.72916666666667 11.421875  Z M 12.8255208333333 6.56315104166667  C 13.0099826388889 6.43771701388889  13.1727430555556 6.42664930555556  13.3138020833333 6.52994791666667  C 13.4657118055556 6.62586805555556  13.4494357638889 6.73654513888889  13.2649739583333 6.86197916666667  L 8.52864583333333 10.0826822916667  C 8.34418402777778 10.2081163194444  8.18142361111111 10.2191840277778  8.04036458333333 10.1158854166667  C 7.88845486111111 10.0199652777778  7.90473090277778 9.90928819444444  8.08919270833333 9.78385416666667  L 12.8255208333333 6.56315104166667  Z M 4.16666666666667 14.1666666666667  L 8.85416666666667 14.1666666666667  L 17.7083333333333 8.14583333333333  L 13.0208333333333 4.95833333333333  L 4.16666666666667 10.9791666666667  L 4.16666666666667 14.1666666666667  Z M 14.0625 4.25  L 18.75 7.4375  L 20.2473958333333 6.41927083333333  C 20.5512152777778 6.21267361111111  20.703125 5.96180555555556  20.703125 5.66666666666667  C 20.703125 5.37152777777778  20.5512152777778 5.12065972222222  20.2473958333333 4.9140625  L 17.7734375 3.23177083333333  C 17.4696180555556 3.02517361111111  17.1006944444444 2.921875  16.6666666666667 2.921875  C 16.2326388888889 2.921875  15.8637152777778 3.02517361111111  15.5598958333333 3.23177083333333  L 14.0625 4.25  Z M 23.6246744791667 0.935221354166667  C 24.5415581597222 1.55870225694444  25 2.30946180555555  25 3.1875  L 25 13.8125  C 25 14.6905381944444  24.5415581597222 15.4412977430556  23.6246744791667 16.0647786458333  C 22.7077907986111 16.6882595486111  21.6037326388889 17  20.3125 17  L 4.6875 17  C 3.39626736111111 17  2.29220920138889 16.6882595486111  1.37532552083333 16.0647786458333  C 0.458441840277778 15.4412977430556  0 14.6905381944444  0 13.8125  L 0 3.1875  C 0 2.30946180555555  0.458441840277778 1.55870225694444  1.37532552083333 0.935221354166667  C 2.29220920138889 0.311740451388888  3.39626736111111 0  4.6875 0  L 20.3125 0  C 21.6037326388889 0  22.7077907986111 0.311740451388888  23.6246744791667 0.935221354166667  Z " fill-rule="nonzero" fill="#18a7f0" stroke="none" transform="matrix(1 0 0 1 980 383 )" />
  </g>
</svg>