<?xml version="1.0" encoding="utf-8"?>
<svg version="1.1" xmlns:xlink="http://www.w3.org/1999/xlink" width="44px" height="50px" xmlns="http://www.w3.org/2000/svg">
  <g transform="matrix(1 0 0 1 -997 -15 )">
    <path d="M 36.6666666666667 14.2857142857143  C 36.6666666666667 17.0200892857143  35.9123263888889 19.5498511904762  34.4036458333333 21.875  C 35.3012152777778 22.1354166666667  36.1558159722222 22.4888392857143  36.9674479166667 22.9352678571429  C 37.7790798611111 23.3816964285714  38.62890625 24.0606398809524  39.5169270833333 24.9720982142857  C 40.4049479166667 25.883556547619  41.1640625 26.957775297619  41.7942708333333 28.1947544642857  C 42.4244791666667 29.4317336309524  42.9496527777778 31.0314360119048  43.3697916666667 32.9938616071429  C 43.7899305555556 34.956287202381  44 37.1558779761905  44 39.5926339285714  C 44 42.4572172619048  43.0451388888889 44.9079241071429  41.1354166666667 46.9447544642857  C 39.2256944444445 48.9815848214286  36.9244791666667 50  34.2317708333333 50  L 9.76822916666667 50  C 7.07552083333333 50  4.77430555555556 48.9815848214286  2.86458333333333 46.9447544642857  C 0.954861111111111 44.9079241071429  0 42.4572172619048  0 39.5926339285714  C 0 37.1558779761905  0.210069444444444 34.956287202381  0.630208333333333 32.9938616071429  C 1.05034722222222 31.0314360119048  1.57552083333333 29.4317336309524  2.20572916666667 28.1947544642857  C 2.8359375 26.957775297619  3.59505208333333 25.883556547619  4.48307291666667 24.9720982142857  C 5.37109375 24.0606398809524  6.22092013888889 23.3816964285714  7.03255208333333 22.9352678571429  C 7.84418402777778 22.4888392857143  8.69878472222222 22.1354166666667  9.59635416666667 21.875  C 8.08767361111111 19.5498511904762  7.33333333333333 17.0200892857143  7.33333333333333 14.2857142857143  C 7.33333333333333 12.3511904761905  7.72005208333333 10.5050223214286  8.49348958333333 8.74720982142857  C 9.26692708333333 6.98939732142857  10.3125 5.46875  11.6302083333333 4.18526785714286  C 12.9479166666667 2.90178571428572  14.5091145833333 1.88337053571428  16.3138020833333 1.13002232142857  C 18.1184895833333 0.376674107142855  20.0138888888889 0  22 0  C 23.9861111111111 0  25.8815104166667 0.376674107142855  27.6861979166667 1.13002232142857  C 29.4908854166667 1.88337053571428  31.0520833333333 2.90178571428572  32.3697916666667 4.18526785714286  C 33.6875 5.46875  34.7330729166667 6.98939732142857  35.5065104166667 8.74720982142857  C 36.2799479166667 10.5050223214286  36.6666666666667 12.3511904761905  36.6666666666667 14.2857142857143  Z M 29.77734375 6.71037946428572  C 27.62890625 4.61774553571428  25.0364583333333 3.57142857142857  22 3.57142857142857  C 18.9635416666667 3.57142857142857  16.37109375 4.61774553571428  14.22265625 6.71037946428572  C 12.07421875 8.80301339285715  11 11.328125  11 14.2857142857143  C 11 17.2433035714286  12.07421875 19.7684151785714  14.22265625 21.8610491071429  C 16.37109375 23.9536830357143  18.9635416666667 25  22 25  C 25.0364583333333 25  27.62890625 23.9536830357143  29.77734375 21.8610491071429  C 31.92578125 19.7684151785714  33 17.2433035714286  33 14.2857142857143  C 33 11.328125  31.92578125 8.80301339285715  29.77734375 6.71037946428572  Z M 9.76822916666667 46  L 34.2317708333333 46  C 35.9123263888889 46.4285714285714  37.3493923611111 45.7635788690476  38.54296875 44.43359375  C 39.7365451388889 43.1036086309524  40.3333333333333 41.4899553571429  40.3333333333333 39.5926339285714  C 40.3333333333333 35.1469494047619  39.5837673611111 31.640625  38.0846354166667 29.0736607142857  C 36.5855034722222 26.5066964285714  34.4322916666667 25.1581101190476  31.625 25.0279017857143  C 28.8559027777778 27.3902529761905  25.6475694444444 28.5714285714286  22 28.5714285714286  C 18.3524305555556 28.5714285714286  15.1440972222222 27.3902529761905  12.375 25.0279017857143  C 9.56770833333333 25.1581101190476  7.41449652777778 26.5066964285714  5.91536458333333 29.0736607142857  C 4.41623263888889 31.640625  3.66666666666667 35.1469494047619  3.66666666666667 39.5926339285714  C 3.66666666666667 41.4899553571429  4.26345486111111 43.1036086309524  5.45703125 44.43359375  C 6.65060763888889 45.7635788690476  8.08767361111111 46.4285714285714  9.76822916666667 46  Z " fill-rule="nonzero" fill="#000000" stroke="none" transform="matrix(1 0 0 1 997 15 )" />
  </g>
</svg>