<?xml version="1.0" encoding="utf-8"?>
<svg version="1.1" xmlns:xlink="http://www.w3.org/1999/xlink" width="40px" height="46px" xmlns="http://www.w3.org/2000/svg">
  <g transform="matrix(1 0 0 1 -1775 -84 )">
    <path d="M 33.3333333333333 13.1428571428571  C 33.3333333333333 15.6584821428571  32.6475694444444 17.9858630952381  31.2760416666667 20.125  C 32.0920138888889 20.3645833333333  32.8689236111111 20.6897321428571  33.6067708333333 21.1004464285714  C 34.3446180555556 21.5111607142857  35.1171875 22.1357886904762  35.9244791666667 22.9743303571429  C 36.7317708333333 23.8128720238095  37.421875 24.8011532738095  37.9947916666667 25.9391741071429  C 38.5677083333333 27.0771949404762  39.0451388888889 28.5489211309524  39.4270833333333 30.3543526785714  C 39.8090277777778 32.1597842261905  40 34.1834077380952  40 36.4252232142857  C 40 39.0606398809524  39.1319444444444 41.3152901785714  37.3958333333333 43.1891741071429  C 35.6597222222222 45.0630580357143  33.5677083333333 46  31.1197916666667 46  L 8.88020833333333 46  C 6.43229166666667 46  4.34027777777778 45.0630580357143  2.60416666666667 43.1891741071429  C 0.868055555555555 41.3152901785714  0 39.0606398809524  0 36.4252232142857  C 0 34.1834077380952  0.190972222222222 32.1597842261905  0.572916666666667 30.3543526785714  C 0.954861111111111 28.5489211309524  1.43229166666667 27.0771949404762  2.00520833333333 25.9391741071429  C 2.578125 24.8011532738095  3.26822916666667 23.8128720238095  4.07552083333333 22.9743303571429  C 4.8828125 22.1357886904762  5.65538194444445 21.5111607142857  6.39322916666667 21.1004464285714  C 7.13107638888889 20.6897321428571  7.90798611111111 20.3645833333333  8.72395833333333 20.125  C 7.35243055555556 17.9858630952381  6.66666666666667 15.6584821428571  6.66666666666667 13.1428571428571  C 6.66666666666667 11.3630952380952  7.01822916666667 9.66462053571428  7.72135416666667 8.04743303571428  C 8.42447916666667 6.43024553571428  9.375 5.03125  10.5729166666667 3.85044642857143  C 11.7708333333333 2.66964285714286  13.1901041666667 1.73270089285714  14.8307291666667 1.03962053571428  C 16.4713541666667 0.346540178571426  18.1944444444444 0  20 0  C 21.8055555555556 0  23.5286458333333 0.346540178571426  25.1692708333333 1.03962053571428  C 26.8098958333333 1.73270089285714  28.2291666666667 2.66964285714286  29.4270833333333 3.85044642857143  C 30.625 5.03125  31.5755208333333 6.43024553571428  32.2786458333333 8.04743303571428  C 32.9817708333333 9.66462053571428  33.3333333333333 11.3630952380952  33.3333333333333 13.1428571428571  Z M 27.0703125 6.17354910714286  C 25.1171875 4.24832589285714  22.7604166666667 3.28571428571428  20 3.28571428571428  C 17.2395833333333 3.28571428571428  14.8828125 4.24832589285714  12.9296875 6.17354910714286  C 10.9765625 8.09877232142857  10 10.421875  10 13.1428571428571  C 10 15.8638392857143  10.9765625 18.1869419642857  12.9296875 20.1121651785714  C 14.8828125 22.0373883928571  17.2395833333333 23  20 23  C 22.7604166666667 23  25.1171875 22.0373883928571  27.0703125 20.1121651785714  C 29.0234375 18.1869419642857  30 15.8638392857143  30 13.1428571428571  C 30 10.421875  29.0234375 8.09877232142857  27.0703125 6.17354910714286  Z M 8.88020833333333 42  L 31.1197916666667 42  C 32.6475694444444 42.7142857142857  33.9539930555556 42.1024925595238  35.0390625 40.87890625  C 36.1241319444444 39.6553199404762  36.6666666666667 38.1707589285714  36.6666666666667 36.4252232142857  C 36.6666666666667 32.3351934523809  35.9852430555556 29.109375  34.6223958333333 26.7477678571429  C 33.2595486111111 24.3861607142857  31.3020833333333 23.1454613095238  28.75 23.0256696428571  C 26.2326388888889 25.1990327380952  23.3159722222222 26.2857142857143  20 26.2857142857143  C 16.6840277777778 26.2857142857143  13.7673611111111 25.1990327380952  11.25 23.0256696428571  C 8.69791666666667 23.1454613095238  6.74045138888889 24.3861607142857  5.37760416666667 26.7477678571429  C 4.01475694444444 29.109375  3.33333333333333 32.3351934523809  3.33333333333333 36.4252232142857  C 3.33333333333333 38.1707589285714  3.87586805555556 39.6553199404762  4.9609375 40.87890625  C 6.04600694444445 42.1024925595238  7.35243055555556 42.7142857142857  8.88020833333333 42  Z " fill-rule="nonzero" fill="#ffffff" stroke="none" transform="matrix(1 0 0 1 1775 84 )" />
  </g>
</svg>