<?xml version="1.0" encoding="utf-8"?>
<svg version="1.1" xmlns:xlink="http://www.w3.org/1999/xlink" width="36px" height="40px" xmlns="http://www.w3.org/2000/svg">
  <g transform="matrix(1 0 0 1 -967 -218 )">
    <path d="M 30 11.4285714285714  C 30 13.6160714285714  29.3828125 15.6398809523809  28.1484375 17.5  C 28.8828125 17.7083333333333  29.58203125 17.9910714285714  30.24609375 18.3482142857143  C 30.91015625 18.7053571428571  31.60546875 19.2485119047619  32.33203125 19.9776785714286  C 33.05859375 20.7068452380952  33.6796875 21.5662202380952  34.1953125 22.5558035714286  C 34.7109375 23.5453869047619  35.140625 24.8251488095238  35.484375 26.3950892857143  C 35.828125 27.9650297619048  36 29.7247023809524  36 31.6741071428571  C 36 33.9657738095238  35.21875 35.9263392857143  33.65625 37.5558035714286  C 32.09375 39.1852678571429  30.2109375 40  28.0078125 40  L 7.9921875 40  C 5.7890625 40  3.90625 39.1852678571429  2.34375 37.5558035714286  C 0.78125 35.9263392857143  0 33.9657738095238  0 31.6741071428571  C 0 29.7247023809524  0.171875 27.9650297619048  0.515625 26.3950892857143  C 0.859375 24.8251488095238  1.2890625 23.5453869047619  1.8046875 22.5558035714286  C 2.3203125 21.5662202380952  2.94140625 20.7068452380952  3.66796875 19.9776785714286  C 4.39453125 19.2485119047619  5.08984375 18.7053571428571  5.75390625 18.3482142857143  C 6.41796875 17.9910714285714  7.1171875 17.7083333333333  7.8515625 17.5  C 6.6171875 15.6398809523809  6 13.6160714285714  6 11.4285714285714  C 6 9.88095238095238  6.31640625 8.40401785714286  6.94921875 6.99776785714286  C 7.58203125 5.59151785714286  8.4375 4.375  9.515625 3.34821428571428  C 10.59375 2.32142857142857  11.87109375 1.50669642857143  13.34765625 0.904017857142856  C 14.82421875 0.301339285714284  16.375 0  18 0  C 19.625 0  21.17578125 0.301339285714284  22.65234375 0.904017857142856  C 24.12890625 1.50669642857143  25.40625 2.32142857142857  26.484375 3.34821428571428  C 27.5625 4.375  28.41796875 5.59151785714286  29.05078125 6.99776785714286  C 29.68359375 8.40401785714286  30 9.88095238095238  30 11.4285714285714  Z M 24.36328125 5.36830357142857  C 22.60546875 3.69419642857143  20.484375 2.85714285714286  18 2.85714285714286  C 15.515625 2.85714285714286  13.39453125 3.69419642857143  11.63671875 5.36830357142857  C 9.87890625 7.04241071428572  9 9.0625  9 11.4285714285714  C 9 13.7946428571429  9.87890625 15.8147321428571  11.63671875 17.4888392857143  C 13.39453125 19.1629464285714  15.515625 20  18 20  C 20.484375 20  22.60546875 19.1629464285714  24.36328125 17.4888392857143  C 26.12109375 15.8147321428571  27 13.7946428571429  27 11.4285714285714  C 27 9.0625  26.12109375 7.04241071428572  24.36328125 5.36830357142857  Z M 7.9921875 37  L 28.0078125 37  C 29.3828125 37.1428571428571  30.55859375 36.6108630952381  31.53515625 35.546875  C 32.51171875 34.4828869047619  33 33.1919642857143  33 31.6741071428571  C 33 28.1175595238095  32.38671875 25.3125  31.16015625 23.2589285714286  C 29.93359375 21.2053571428571  28.171875 20.1264880952381  25.875 20.0223214285714  C 23.609375 21.9122023809524  20.984375 22.8571428571429  18 22.8571428571429  C 15.015625 22.8571428571429  12.390625 21.9122023809524  10.125 20.0223214285714  C 7.828125 20.1264880952381  6.06640625 21.2053571428571  4.83984375 23.2589285714286  C 3.61328125 25.3125  3 28.1175595238095  3 31.6741071428571  C 3 33.1919642857143  3.48828125 34.4828869047619  4.46484375 35.546875  C 5.44140625 36.6108630952381  6.6171875 37.1428571428571  7.9921875 37  Z " fill-rule="nonzero" fill="#000000" stroke="none" transform="matrix(1 0 0 1 967 218 )" />
  </g>
</svg>