<svg data-v-423bf9ae="" xmlns="http://www.w3.org/2000/svg" viewBox="0 0 285.99406250518814 60" class="font"><!----><!----><!----><g data-v-423bf9ae="" id="81051895-20a9-4f51-98eb-3ec523338fd5" fill="black" transform="matrix(5.934717655181885,0,0,5.934717655181885,-7.477750301361084,-26.172103881835938)"><path d="M2.44 14.35L2.44 9.91L7 9.91L7 8.89L2.44 8.89L2.44 5.60L7.42 5.60L7.42 4.58L1.26 4.58L1.26 14.35ZM15.68 14.35L15.68 13.33L10.84 13.33L10.84 9.91L15.51 9.91L15.51 8.89L10.84 8.89L10.84 5.60L15.68 5.60L15.68 4.58L9.66 4.58L9.66 14.35ZM20.97 14.52C23.14 14.52 24.39 13.43 24.39 11.62C24.39 10.35 23.76 9.28 21.84 8.95L20.79 8.76C19.40 8.53 18.96 7.97 18.96 7.10C18.96 5.99 19.70 5.42 21.01 5.42C22.23 5.42 22.93 5.91 23.48 6.62L24.30 5.91C23.65 4.97 22.58 4.41 21.03 4.41C19.04 4.41 17.77 5.33 17.77 7.13C17.77 8.36 18.37 9.46 20.29 9.79L21.38 9.97C22.71 10.19 23.20 10.70 23.20 11.65C23.20 12.82 22.43 13.51 21.01 13.51C19.84 13.51 19.04 13.05 18.28 12.10L17.43 12.80C18.16 13.80 19.22 14.52 20.97 14.52ZM29.72 14.52C31.51 14.52 32.26 13.44 32.73 12.38L31.72 11.91C31.37 12.78 30.91 13.50 29.72 13.50C28.17 13.50 27.43 12.22 27.43 10.26L27.43 8.67C27.43 6.71 28.17 5.43 29.72 5.43C30.91 5.43 31.37 6.15 31.72 7.01L32.73 6.55C32.26 5.49 31.51 4.41 29.72 4.41C27.34 4.41 26.18 6.22 26.18 9.46C26.18 12.71 27.34 14.52 29.72 14.52ZM41.58 14.35L38.58 4.58L37.03 4.58L34.03 14.35L35.25 14.35L36.08 11.56L39.51 11.56L40.33 14.35ZM39.23 10.54L36.36 10.54L37.73 5.82L37.86 5.82ZM48.37 14.35L49.45 14.35L49.45 4.58L47.99 4.58L46.27 8.89L46.19 8.89L44.46 4.58L42.95 4.58L42.95 14.35L44.03 14.35L44.03 9.45L44.03 6.36L44.14 6.36L46.20 11.38L48.26 6.36L48.37 6.36L48.37 9.45Z"></path></g><!----><!----></svg>