<?xml version="1.0" encoding="utf-8"?>
<svg version="1.1" xmlns:xlink="http://www.w3.org/1999/xlink" width="50px" height="40px" xmlns="http://www.w3.org/2000/svg">
  <g transform="matrix(1 0 0 1 -326 -108 )">
    <path d="M 42.8128872366791 22.8526890101325  C 42.8335398595622 22.8942582488958  42.8438661710037 22.9566121070408  42 23.0397505845674  L 42 38.0046765393609  C 42.8438661710037 38.545076643284  42.6476662536142 39.0127305793713  42.2552664188352 39.4076383476228  C 41.8628665840562 39.8025461158743  41.3981825691863 40  40.8612143742255 40  L 29 40  L 29 28.0280592361652  L 21 28.0280592361652  L 21 40  L 9.13878562577447 40  C 8.60181743081371 40  8.13713341594383 39.8025461158743  7.74473358116481 39.4076383476228  C 7.35233374638579 39.0127305793713  7.15613382899628 38.545076643284  8 38.0046765393609  L 8 23.0397505845674  C 7.15613382899628 23.0189659651858  7.16129698471706 22.9877890361133  7.17162329615861 22.94621979735  C 7.18194960760017 22.9046505585866  7.18711276332094 22.8734736295142  7.18711276332094 22.8526890101325  L 25 8.07482462977397  L 42.8128872366791 22.8526890101325  Z M 49.9690210656753 20.1558846453624  C 49.9896736885584 20.4364770070148  49.9173895084676 20.6806962847493  49.7521685254027 20.8885424785659  L 47.8314745972739 23.1956352299299  C 47.666253614209 23.3826968043648  47.4494010739364 23.4970122109639  47.180916976456 23.5385814497272  L 47.087980173482 23.5385814497272  C 46.8194960760017 23.5385814497272  46.602643535729 23.4658352818914  46.4374225526642 23.3203429462198  L 25 5.33125487139517  L 3.56257744733581 23.3203429462198  C 3.31474597273854 23.4866199012731  3.06691449814126 23.5593660691089  2.81908302354399 23.5385814497272  C 2.55059892606361 23.4970122109639  2.333746385791 23.3826968043648  2.16852540272615 23.1956352299299  L 0.247831474597274 20.8885424785659  C 0.0826104915324247 20.6806962847493  0.0103263114415532 20.4364770070148  0.0309789343246592 20.1558846453624  C 0.0516315572077655 19.8752922837101  0.165220983064849 19.6518576253572  0.371747211895911 19.485580670304  L 22.6456009913259 0.810600155884647  C 23.3064849235853 0.270200051961544  24.0912845931433 0  25 0  C 25.9087154068567 0  26.6935150764147 0.270200051961544  27.3543990086741 0.810600155884647  L 34.913258983891 7.17069368667186  L 34.913258983891 1.09119251753702  C 34.913258983891 0.800207846193812  35.0061957868649 0.561184723304753  35.1920693928129 0.374123148869838  C 35.3779429987608 0.187061574434919  35.6154481619166 0.0935307872174596  35.90458488228 0.0935307872174596  L 41.8525402726146 0.0935307872174596  C 42.1416769929781 0.0935307872174596  42.3791821561338 0.187061574434919  42.5650557620818 0.374123148869838  C 42.7509293680297 0.561184723304753  42.8438661710037 0.800207846193812  42 1.09119251753702  L 42 13.8113795791115  L 49.6282527881041 19.485580670304  C 49.8347790169352 19.6518576253572  49.9483684427922 19.8752922837101  49.9690210656753 20.1558846453624  Z " fill-rule="nonzero" fill="#000000" stroke="none" transform="matrix(1 0 0 1 326 108 )" />
  </g>
</svg>